solid OpenSCAD_Model
  facet normal 0.62932 0.777146 -0
    outer loop
      vertex 2.0743 2.30375 2
      vertex 1.82213 2.50795 96
      vertex 2.0743 2.30375 96
    endloop
  endfacet
  facet normal 0.62932 0.777146 0
    outer loop
      vertex 1.82213 2.50795 96
      vertex 2.0743 2.30375 2
      vertex 1.82213 2.50795 2
    endloop
  endfacet
  facet normal 0.93358 0.358368 0
    outer loop
      vertex 2.94827 0.957952 96
      vertex 2.83199 1.26088 2
      vertex 2.83199 1.26088 96
    endloop
  endfacet
  facet normal 0.93358 0.358368 0
    outer loop
      vertex 2.83199 1.26088 2
      vertex 2.94827 0.957952 96
      vertex 2.94827 0.957952 2
    endloop
  endfacet
  facet normal 0.891006 0.453991 0
    outer loop
      vertex 2.83199 1.26088 96
      vertex 2.68468 1.55 2
      vertex 2.68468 1.55 96
    endloop
  endfacet
  facet normal 0.891006 0.453991 0
    outer loop
      vertex 2.68468 1.55 2
      vertex 2.83199 1.26088 96
      vertex 2.83199 1.26088 2
    endloop
  endfacet
  facet normal 0.358368 0.93358 -0
    outer loop
      vertex 1.26088 2.83199 2
      vertex 0.957952 2.94827 96
      vertex 1.26088 2.83199 96
    endloop
  endfacet
  facet normal 0.358368 0.93358 0
    outer loop
      vertex 0.957952 2.94827 96
      vertex 1.26088 2.83199 2
      vertex 0.957952 2.94827 2
    endloop
  endfacet
  facet normal 0.258819 0.965926 -0
    outer loop
      vertex 0.957952 2.94827 2
      vertex 0.644526 3.03226 96
      vertex 0.957952 2.94827 96
    endloop
  endfacet
  facet normal 0.258819 0.965926 0
    outer loop
      vertex 0.644526 3.03226 96
      vertex 0.957952 2.94827 2
      vertex 0.644526 3.03226 2
    endloop
  endfacet
  facet normal 0.156434 0.987688 -0
    outer loop
      vertex 0.644526 3.03226 2
      vertex 0.324038 3.08302 96
      vertex 0.644526 3.03226 96
    endloop
  endfacet
  facet normal 0.156434 0.987688 0
    outer loop
      vertex 0.324038 3.08302 96
      vertex 0.644526 3.03226 2
      vertex 0.324038 3.08302 2
    endloop
  endfacet
  facet normal 0.777146 -0.62932 0
    outer loop
      vertex 2.30375 -2.0743 96
      vertex 2.50795 -1.82213 2
      vertex 2.50795 -1.82213 96
    endloop
  endfacet
  facet normal 0.777146 -0.62932 0
    outer loop
      vertex 2.50795 -1.82213 2
      vertex 2.30375 -2.0743 96
      vertex 2.30375 -2.0743 2
    endloop
  endfacet
  facet normal 0 0 -1
    outer loop
      vertex 3.08302 -0.324038 2
      vertex 3.08302 0.324038 2
      vertex 3.1 0 2
    endloop
  endfacet
  facet normal 0 0 -1
    outer loop
      vertex 3.03226 -0.644526 2
      vertex 3.08302 0.324038 2
      vertex 3.08302 -0.324038 2
    endloop
  endfacet
  facet normal 0 0 -1
    outer loop
      vertex 3.03226 -0.644526 2
      vertex 3.03226 0.644526 2
      vertex 3.08302 0.324038 2
    endloop
  endfacet
  facet normal 0 0 -1
    outer loop
      vertex 2.94827 -0.957952 2
      vertex 3.03226 0.644526 2
      vertex 3.03226 -0.644526 2
    endloop
  endfacet
  facet normal 0 0 -1
    outer loop
      vertex 2.94827 -0.957952 2
      vertex 2.94827 0.957952 2
      vertex 3.03226 0.644526 2
    endloop
  endfacet
  facet normal 0 0 -1
    outer loop
      vertex 2.83199 -1.26088 2
      vertex 2.94827 0.957952 2
      vertex 2.94827 -0.957952 2
    endloop
  endfacet
  facet normal 0 0 -1
    outer loop
      vertex 2.83199 -1.26088 2
      vertex 2.83199 1.26088 2
      vertex 2.94827 0.957952 2
    endloop
  endfacet
  facet normal 0 0 -1
    outer loop
      vertex 2.68468 -1.55 2
      vertex 2.83199 1.26088 2
      vertex 2.83199 -1.26088 2
    endloop
  endfacet
  facet normal 0 0 -1
    outer loop
      vertex 2.68468 -1.55 2
      vertex 2.68468 1.55 2
      vertex 2.83199 1.26088 2
    endloop
  endfacet
  facet normal 0 0 -1
    outer loop
      vertex 2.50795 -1.82213 2
      vertex 2.68468 1.55 2
      vertex 2.68468 -1.55 2
    endloop
  endfacet
  facet normal 0 0 -1
    outer loop
      vertex 2.50795 -1.82213 2
      vertex 2.50795 1.82213 2
      vertex 2.68468 1.55 2
    endloop
  endfacet
  facet normal 0 0 -1
    outer loop
      vertex 2.30375 -2.0743 2
      vertex 2.50795 1.82213 2
      vertex 2.50795 -1.82213 2
    endloop
  endfacet
  facet normal 0 0 -1
    outer loop
      vertex 2.30375 -2.0743 2
      vertex 2.30375 2.0743 2
      vertex 2.50795 1.82213 2
    endloop
  endfacet
  facet normal 0 0 -1
    outer loop
      vertex 2.0743 -2.30375 2
      vertex 2.30375 2.0743 2
      vertex 2.30375 -2.0743 2
    endloop
  endfacet
  facet normal 0 0 -1
    outer loop
      vertex 2.0743 -2.30375 2
      vertex 2.0743 2.30375 2
      vertex 2.30375 2.0743 2
    endloop
  endfacet
  facet normal 0 0 -1
    outer loop
      vertex 1.82213 -2.50795 2
      vertex 2.0743 2.30375 2
      vertex 2.0743 -2.30375 2
    endloop
  endfacet
  facet normal 0 0 -1
    outer loop
      vertex 1.82213 -2.50795 2
      vertex 1.82213 2.50795 2
      vertex 2.0743 2.30375 2
    endloop
  endfacet
  facet normal 0 0 -1
    outer loop
      vertex 1.55 -2.68468 2
      vertex 1.82213 2.50795 2
      vertex 1.82213 -2.50795 2
    endloop
  endfacet
  facet normal 0 0 -1
    outer loop
      vertex 1.55 -2.68468 2
      vertex 1.55 2.68468 2
      vertex 1.82213 2.50795 2
    endloop
  endfacet
  facet normal 0 0 -1
    outer loop
      vertex 1.26088 -2.83199 2
      vertex 1.55 2.68468 2
      vertex 1.55 -2.68468 2
    endloop
  endfacet
  facet normal 0 0 -1
    outer loop
      vertex 1.26088 -2.83199 2
      vertex 1.26088 2.83199 2
      vertex 1.55 2.68468 2
    endloop
  endfacet
  facet normal 0 0 -1
    outer loop
      vertex 0.957952 -2.94827 2
      vertex 1.26088 2.83199 2
      vertex 1.26088 -2.83199 2
    endloop
  endfacet
  facet normal 0 0 -1
    outer loop
      vertex 0.957952 -2.94827 2
      vertex 0.957952 2.94827 2
      vertex 1.26088 2.83199 2
    endloop
  endfacet
  facet normal 0 0 -1
    outer loop
      vertex 0.644526 -3.03226 2
      vertex 0.957952 2.94827 2
      vertex 0.957952 -2.94827 2
    endloop
  endfacet
  facet normal 0 0 -1
    outer loop
      vertex 0.644526 -3.03226 2
      vertex 0.644526 3.03226 2
      vertex 0.957952 2.94827 2
    endloop
  endfacet
  facet normal 0 0 -1
    outer loop
      vertex 0.324038 -3.08302 2
      vertex 0.644526 3.03226 2
      vertex 0.644526 -3.03226 2
    endloop
  endfacet
  facet normal 0 0 -1
    outer loop
      vertex 0.324038 -3.08302 2
      vertex 0.324038 3.08302 2
      vertex 0.644526 3.03226 2
    endloop
  endfacet
  facet normal 0 0 -1
    outer loop
      vertex 0 -3.1 2
      vertex 0.324038 3.08302 2
      vertex 0.324038 -3.08302 2
    endloop
  endfacet
  facet normal 0 0 -1
    outer loop
      vertex 0 -3.1 2
      vertex 0 3.1 2
      vertex 0.324038 3.08302 2
    endloop
  endfacet
  facet normal 0 0 -1
    outer loop
      vertex -3.1 -3.1 2
      vertex 0 3.1 2
      vertex 0 -3.1 2
    endloop
  endfacet
  facet normal -0 0 -1
    outer loop
      vertex 0 3.1 2
      vertex -3.1 -3.1 2
      vertex -3.1 3.1 2
    endloop
  endfacet
  facet normal 0.987688 0.156434 0
    outer loop
      vertex 3.08302 0.324038 96
      vertex 3.03226 0.644526 2
      vertex 3.03226 0.644526 96
    endloop
  endfacet
  facet normal 0.987688 0.156434 0
    outer loop
      vertex 3.03226 0.644526 2
      vertex 3.08302 0.324038 96
      vertex 3.08302 0.324038 2
    endloop
  endfacet
  facet normal 0.965926 0.258819 0
    outer loop
      vertex 3.03226 0.644526 96
      vertex 2.94827 0.957952 2
      vertex 2.94827 0.957952 96
    endloop
  endfacet
  facet normal 0.965926 0.258819 0
    outer loop
      vertex 2.94827 0.957952 2
      vertex 3.03226 0.644526 96
      vertex 3.03226 0.644526 2
    endloop
  endfacet
  facet normal 0.777146 0.62932 0
    outer loop
      vertex 2.50795 1.82213 96
      vertex 2.30375 2.0743 2
      vertex 2.30375 2.0743 96
    endloop
  endfacet
  facet normal 0.777146 0.62932 0
    outer loop
      vertex 2.30375 2.0743 2
      vertex 2.50795 1.82213 96
      vertex 2.50795 1.82213 2
    endloop
  endfacet
  facet normal 0.838671 0.544639 0
    outer loop
      vertex 2.68468 1.55 96
      vertex 2.50795 1.82213 2
      vertex 2.50795 1.82213 96
    endloop
  endfacet
  facet normal 0.838671 0.544639 0
    outer loop
      vertex 2.50795 1.82213 2
      vertex 2.68468 1.55 96
      vertex 2.68468 1.55 2
    endloop
  endfacet
  facet normal 0.707107 0.707107 0
    outer loop
      vertex 2.30375 2.0743 96
      vertex 2.0743 2.30375 2
      vertex 2.0743 2.30375 96
    endloop
  endfacet
  facet normal 0.707107 0.707107 0
    outer loop
      vertex 2.0743 2.30375 2
      vertex 2.30375 2.0743 96
      vertex 2.30375 2.0743 2
    endloop
  endfacet
  facet normal 0.544639 0.838671 -0
    outer loop
      vertex 1.82213 2.50795 2
      vertex 1.55 2.68468 96
      vertex 1.82213 2.50795 96
    endloop
  endfacet
  facet normal 0.544639 0.838671 0
    outer loop
      vertex 1.55 2.68468 96
      vertex 1.82213 2.50795 2
      vertex 1.55 2.68468 2
    endloop
  endfacet
  facet normal 0.0523359 0.99863 -0
    outer loop
      vertex 0.324038 3.08302 2
      vertex 0 3.1 96
      vertex 0.324038 3.08302 96
    endloop
  endfacet
  facet normal 0.0523359 0.99863 0
    outer loop
      vertex 0 3.1 96
      vertex 0.324038 3.08302 2
      vertex 0 3.1 2
    endloop
  endfacet
  facet normal 0.453991 0.891006 -0
    outer loop
      vertex 1.55 2.68468 2
      vertex 1.26088 2.83199 96
      vertex 1.55 2.68468 96
    endloop
  endfacet
  facet normal 0.453991 0.891006 0
    outer loop
      vertex 1.26088 2.83199 96
      vertex 1.55 2.68468 2
      vertex 1.26088 2.83199 2
    endloop
  endfacet
  facet normal 0 0 1
    outer loop
      vertex 3.08302 0.324038 96
      vertex 3.08302 -0.324038 96
      vertex 3.1 0 96
    endloop
  endfacet
  facet normal 0 0 1
    outer loop
      vertex 3.03226 0.644526 96
      vertex 3.08302 -0.324038 96
      vertex 3.08302 0.324038 96
    endloop
  endfacet
  facet normal 0 0 1
    outer loop
      vertex 3.03226 0.644526 96
      vertex 3.03226 -0.644526 96
      vertex 3.08302 -0.324038 96
    endloop
  endfacet
  facet normal 0 0 1
    outer loop
      vertex 2.94827 0.957952 96
      vertex 3.03226 -0.644526 96
      vertex 3.03226 0.644526 96
    endloop
  endfacet
  facet normal 0 0 1
    outer loop
      vertex 2.94827 0.957952 96
      vertex 2.94827 -0.957952 96
      vertex 3.03226 -0.644526 96
    endloop
  endfacet
  facet normal 0 0 1
    outer loop
      vertex 2.83199 1.26088 96
      vertex 2.94827 -0.957952 96
      vertex 2.94827 0.957952 96
    endloop
  endfacet
  facet normal 0 0 1
    outer loop
      vertex 2.83199 1.26088 96
      vertex 2.83199 -1.26088 96
      vertex 2.94827 -0.957952 96
    endloop
  endfacet
  facet normal 0 0 1
    outer loop
      vertex 2.68468 1.55 96
      vertex 2.83199 -1.26088 96
      vertex 2.83199 1.26088 96
    endloop
  endfacet
  facet normal 0 0 1
    outer loop
      vertex 2.68468 1.55 96
      vertex 2.68468 -1.55 96
      vertex 2.83199 -1.26088 96
    endloop
  endfacet
  facet normal 0 0 1
    outer loop
      vertex 2.50795 1.82213 96
      vertex 2.68468 -1.55 96
      vertex 2.68468 1.55 96
    endloop
  endfacet
  facet normal 0 0 1
    outer loop
      vertex 2.50795 1.82213 96
      vertex 2.50795 -1.82213 96
      vertex 2.68468 -1.55 96
    endloop
  endfacet
  facet normal 0 0 1
    outer loop
      vertex 2.30375 2.0743 96
      vertex 2.50795 -1.82213 96
      vertex 2.50795 1.82213 96
    endloop
  endfacet
  facet normal 0 0 1
    outer loop
      vertex 2.30375 2.0743 96
      vertex 2.30375 -2.0743 96
      vertex 2.50795 -1.82213 96
    endloop
  endfacet
  facet normal 0 0 1
    outer loop
      vertex 2.0743 2.30375 96
      vertex 2.30375 -2.0743 96
      vertex 2.30375 2.0743 96
    endloop
  endfacet
  facet normal 0 0 1
    outer loop
      vertex 2.0743 2.30375 96
      vertex 2.0743 -2.30375 96
      vertex 2.30375 -2.0743 96
    endloop
  endfacet
  facet normal 0 0 1
    outer loop
      vertex 1.82213 2.50795 96
      vertex 2.0743 -2.30375 96
      vertex 2.0743 2.30375 96
    endloop
  endfacet
  facet normal 0 0 1
    outer loop
      vertex 1.82213 2.50795 96
      vertex 1.82213 -2.50795 96
      vertex 2.0743 -2.30375 96
    endloop
  endfacet
  facet normal 0 0 1
    outer loop
      vertex 1.55 2.68468 96
      vertex 1.82213 -2.50795 96
      vertex 1.82213 2.50795 96
    endloop
  endfacet
  facet normal 0 0 1
    outer loop
      vertex 1.55 2.68468 96
      vertex 1.55 -2.68468 96
      vertex 1.82213 -2.50795 96
    endloop
  endfacet
  facet normal 0 0 1
    outer loop
      vertex 1.26088 2.83199 96
      vertex 1.55 -2.68468 96
      vertex 1.55 2.68468 96
    endloop
  endfacet
  facet normal 0 0 1
    outer loop
      vertex 1.26088 2.83199 96
      vertex 1.26088 -2.83199 96
      vertex 1.55 -2.68468 96
    endloop
  endfacet
  facet normal 0 0 1
    outer loop
      vertex 0.957952 2.94827 96
      vertex 1.26088 -2.83199 96
      vertex 1.26088 2.83199 96
    endloop
  endfacet
  facet normal 0 0 1
    outer loop
      vertex 0.957952 2.94827 96
      vertex 0.957952 -2.94827 96
      vertex 1.26088 -2.83199 96
    endloop
  endfacet
  facet normal 0 0 1
    outer loop
      vertex 0.644526 3.03226 96
      vertex 0.957952 -2.94827 96
      vertex 0.957952 2.94827 96
    endloop
  endfacet
  facet normal 0 0 1
    outer loop
      vertex 0.644526 3.03226 96
      vertex 0.644526 -3.03226 96
      vertex 0.957952 -2.94827 96
    endloop
  endfacet
  facet normal 0 0 1
    outer loop
      vertex 0.324038 3.08302 96
      vertex 0.644526 -3.03226 96
      vertex 0.644526 3.03226 96
    endloop
  endfacet
  facet normal 0 0 1
    outer loop
      vertex 0.324038 3.08302 96
      vertex 0.324038 -3.08302 96
      vertex 0.644526 -3.03226 96
    endloop
  endfacet
  facet normal 0 0 1
    outer loop
      vertex 0 3.1 96
      vertex 0.324038 -3.08302 96
      vertex 0.324038 3.08302 96
    endloop
  endfacet
  facet normal 0 0 1
    outer loop
      vertex 0 3.1 96
      vertex 0 -3.1 96
      vertex 0.324038 -3.08302 96
    endloop
  endfacet
  facet normal -0 0 1
    outer loop
      vertex -3.1 3.1 96
      vertex 0 -3.1 96
      vertex 0 3.1 96
    endloop
  endfacet
  facet normal 0 0 1
    outer loop
      vertex 0 -3.1 96
      vertex -3.1 3.1 96
      vertex -3.1 -3.1 96
    endloop
  endfacet
  facet normal 0.99863 0.0523359 0
    outer loop
      vertex 3.1 0 96
      vertex 3.08302 0.324038 2
      vertex 3.08302 0.324038 96
    endloop
  endfacet
  facet normal 0.99863 0.0523359 0
    outer loop
      vertex 3.08302 0.324038 2
      vertex 3.1 0 96
      vertex 3.1 0 2
    endloop
  endfacet
  facet normal 0.0523359 -0.99863 0
    outer loop
      vertex 0 -3.1 2
      vertex 0.324038 -3.08302 96
      vertex 0 -3.1 96
    endloop
  endfacet
  facet normal 0.0523359 -0.99863 0
    outer loop
      vertex 0.324038 -3.08302 96
      vertex 0 -3.1 2
      vertex 0.324038 -3.08302 2
    endloop
  endfacet
  facet normal 0.965926 -0.258819 0
    outer loop
      vertex 2.94827 -0.957952 96
      vertex 3.03226 -0.644526 2
      vertex 3.03226 -0.644526 96
    endloop
  endfacet
  facet normal 0.965926 -0.258819 0
    outer loop
      vertex 3.03226 -0.644526 2
      vertex 2.94827 -0.957952 96
      vertex 2.94827 -0.957952 2
    endloop
  endfacet
  facet normal 0.258819 -0.965926 0
    outer loop
      vertex 0.644526 -3.03226 2
      vertex 0.957952 -2.94827 96
      vertex 0.644526 -3.03226 96
    endloop
  endfacet
  facet normal 0.258819 -0.965926 0
    outer loop
      vertex 0.957952 -2.94827 96
      vertex 0.644526 -3.03226 2
      vertex 0.957952 -2.94827 2
    endloop
  endfacet
  facet normal 0.62932 -0.777146 0
    outer loop
      vertex 1.82213 -2.50795 2
      vertex 2.0743 -2.30375 96
      vertex 1.82213 -2.50795 96
    endloop
  endfacet
  facet normal 0.62932 -0.777146 0
    outer loop
      vertex 2.0743 -2.30375 96
      vertex 1.82213 -2.50795 2
      vertex 2.0743 -2.30375 2
    endloop
  endfacet
  facet normal 0.453991 -0.891006 0
    outer loop
      vertex 1.26088 -2.83199 2
      vertex 1.55 -2.68468 96
      vertex 1.26088 -2.83199 96
    endloop
  endfacet
  facet normal 0.453991 -0.891006 0
    outer loop
      vertex 1.55 -2.68468 96
      vertex 1.26088 -2.83199 2
      vertex 1.55 -2.68468 2
    endloop
  endfacet
  facet normal 0.891006 -0.453991 0
    outer loop
      vertex 2.68468 -1.55 96
      vertex 2.83199 -1.26088 2
      vertex 2.83199 -1.26088 96
    endloop
  endfacet
  facet normal 0.891006 -0.453991 0
    outer loop
      vertex 2.83199 -1.26088 2
      vertex 2.68468 -1.55 96
      vertex 2.68468 -1.55 2
    endloop
  endfacet
  facet normal 0.987688 -0.156434 0
    outer loop
      vertex 3.03226 -0.644526 96
      vertex 3.08302 -0.324038 2
      vertex 3.08302 -0.324038 96
    endloop
  endfacet
  facet normal 0.987688 -0.156434 0
    outer loop
      vertex 3.08302 -0.324038 2
      vertex 3.03226 -0.644526 96
      vertex 3.03226 -0.644526 2
    endloop
  endfacet
  facet normal 0.156434 -0.987688 0
    outer loop
      vertex 0.324038 -3.08302 2
      vertex 0.644526 -3.03226 96
      vertex 0.324038 -3.08302 96
    endloop
  endfacet
  facet normal 0.156434 -0.987688 0
    outer loop
      vertex 0.644526 -3.03226 96
      vertex 0.324038 -3.08302 2
      vertex 0.644526 -3.03226 2
    endloop
  endfacet
  facet normal 0.358368 -0.93358 0
    outer loop
      vertex 0.957952 -2.94827 2
      vertex 1.26088 -2.83199 96
      vertex 0.957952 -2.94827 96
    endloop
  endfacet
  facet normal 0.358368 -0.93358 0
    outer loop
      vertex 1.26088 -2.83199 96
      vertex 0.957952 -2.94827 2
      vertex 1.26088 -2.83199 2
    endloop
  endfacet
  facet normal 0.707107 -0.707107 0
    outer loop
      vertex 2.0743 -2.30375 96
      vertex 2.30375 -2.0743 2
      vertex 2.30375 -2.0743 96
    endloop
  endfacet
  facet normal 0.707107 -0.707107 0
    outer loop
      vertex 2.30375 -2.0743 2
      vertex 2.0743 -2.30375 96
      vertex 2.0743 -2.30375 2
    endloop
  endfacet
  facet normal 0.544639 -0.838671 0
    outer loop
      vertex 1.55 -2.68468 2
      vertex 1.82213 -2.50795 96
      vertex 1.55 -2.68468 96
    endloop
  endfacet
  facet normal 0.544639 -0.838671 0
    outer loop
      vertex 1.82213 -2.50795 96
      vertex 1.55 -2.68468 2
      vertex 1.82213 -2.50795 2
    endloop
  endfacet
  facet normal 0.93358 -0.358368 0
    outer loop
      vertex 2.83199 -1.26088 96
      vertex 2.94827 -0.957952 2
      vertex 2.94827 -0.957952 96
    endloop
  endfacet
  facet normal 0.93358 -0.358368 0
    outer loop
      vertex 2.94827 -0.957952 2
      vertex 2.83199 -1.26088 96
      vertex 2.83199 -1.26088 2
    endloop
  endfacet
  facet normal 0.838671 -0.544639 0
    outer loop
      vertex 2.50795 -1.82213 96
      vertex 2.68468 -1.55 2
      vertex 2.68468 -1.55 96
    endloop
  endfacet
  facet normal 0.838671 -0.544639 0
    outer loop
      vertex 2.68468 -1.55 2
      vertex 2.50795 -1.82213 96
      vertex 2.50795 -1.82213 2
    endloop
  endfacet
  facet normal 0.99863 -0.0523359 0
    outer loop
      vertex 3.08302 -0.324038 96
      vertex 3.1 0 2
      vertex 3.1 0 96
    endloop
  endfacet
  facet normal 0.99863 -0.0523359 0
    outer loop
      vertex 3.1 0 2
      vertex 3.08302 -0.324038 96
      vertex 3.08302 -0.324038 2
    endloop
  endfacet
  facet normal -1 0 0
    outer loop
      vertex -3.1 -3.1 2
      vertex -3.1 3.1 96
      vertex -3.1 3.1 2
    endloop
  endfacet
  facet normal -1 -0 0
    outer loop
      vertex -3.1 3.1 96
      vertex -3.1 -3.1 2
      vertex -3.1 -3.1 96
    endloop
  endfacet
  facet normal 0 -1 0
    outer loop
      vertex -3.1 -3.1 2
      vertex 0 -3.1 96
      vertex -3.1 -3.1 96
    endloop
  endfacet
  facet normal 0 -1 -0
    outer loop
      vertex 0 -3.1 96
      vertex -3.1 -3.1 2
      vertex 0 -3.1 2
    endloop
  endfacet
  facet normal 0 1 -0
    outer loop
      vertex 0 3.1 2
      vertex -3.1 3.1 96
      vertex 0 3.1 96
    endloop
  endfacet
  facet normal 0 1 0
    outer loop
      vertex -3.1 3.1 96
      vertex 0 3.1 2
      vertex -3.1 3.1 2
    endloop
  endfacet
endsolid OpenSCAD_Model
